<svg version="1.1" id="Layer_1" xmlns="http://www.w3.org/2000/svg" xmlns:xlink="http://www.w3.org/1999/xlink" x="0px" y="0px"
	 width="100%" viewBox="0 0 512 352" enable-background="new 0 0 512 352" xml:space="preserve">
<path fill="#000000" opacity="1.000000" stroke="none" 
	d="
M1.000000,233.437500 
	C3.527734,230.484329 6.585983,229.653412 10.110798,229.766266 
	C14.771103,229.915512 19.459080,229.523849 24.100214,229.854797 
	C28.469648,230.166367 30.828247,228.733994 31.911596,224.319687 
	C33.137764,219.323471 34.997028,214.478363 36.666431,209.596741 
	C37.733257,206.477188 39.241337,203.661316 43.161823,203.710358 
	C47.202206,203.760895 48.890251,206.443329 49.933189,209.905579 
	C51.228683,214.206238 53.023388,218.386551 53.964970,222.756210 
	C55.147720,228.245071 57.845432,230.554581 63.632507,229.919693 
	C68.406784,229.395920 73.284698,229.808807 78.116638,229.821396 
	C81.557617,229.830353 84.405083,230.905289 85.561150,234.478333 
	C86.749336,238.150650 84.699768,240.480774 81.977135,242.457718 
	C77.664200,245.589417 73.453522,248.875793 69.009102,251.808014 
	C65.728531,253.972427 64.701302,256.263031 66.239647,260.134827 
	C68.262375,265.225708 69.592506,270.587738 71.354340,275.787811 
	C72.492874,279.148224 72.231232,282.143585 69.214424,284.253754 
	C66.345070,286.260742 63.529396,285.305634 60.908325,283.406525 
	C56.187027,279.985687 51.353302,276.711609 46.749744,273.140106 
	C44.212807,271.171906 42.226612,271.138458 39.676323,273.136353 
	C35.090885,276.728577 30.234623,279.972839 25.557394,283.451050 
	C22.886848,285.437012 20.142256,286.093079 17.255440,284.179840 
	C14.258118,282.193390 14.143201,279.133881 15.042642,276.127014 
	C16.711555,270.547729 18.603165,265.032928 20.495691,259.523468 
	C21.540449,256.481964 21.127232,254.333466 18.163794,252.365494 
	C12.480358,248.591202 7.094101,244.369431 1.292275,240.166656 
	C1.000000,237.958328 1.000000,235.916672 1.000000,233.437500 
M51.471279,255.620728 
	C48.898457,249.215714 54.679161,247.115860 59.013008,242.691330 
	C49.966972,243.735260 44.847195,240.462936 43.021809,231.716812 
	C42.172924,240.842102 36.373814,243.112381 28.769405,243.122208 
	C30.802202,246.710342 34.780460,247.522583 35.328587,251.341583 
	C35.799313,254.621323 33.870857,257.551453 33.952843,261.968170 
	C40.479221,254.606842 46.617058,256.009857 53.333237,262.419800 
	C52.438904,259.214966 52.038536,257.780273 51.471279,255.620728 
z"/>
<path fill="#000000" opacity="1.000000" stroke="none" 
	d="
M513.000000,239.562500 
	C507.325012,244.091980 501.742767,248.322327 495.935516,252.217072 
	C493.070190,254.138718 492.417969,256.286041 493.500488,259.387543 
	C495.310455,264.573303 497.050232,269.785461 498.706696,275.022217 
	C499.753510,278.331543 500.175995,281.715973 496.866089,284.081116 
	C493.588379,286.423218 490.615204,285.111786 487.738800,282.950256 
	C483.476929,279.747681 479.038696,276.775696 474.837952,273.497437 
	C472.109283,271.367981 469.936462,270.903687 466.967987,273.382202 
	C462.630463,277.003754 457.844879,280.089905 453.238220,283.387451 
	C450.637604,285.249023 447.848785,286.261292 444.926758,284.243622 
	C441.864746,282.129242 441.578430,279.182556 442.715179,275.819183 
	C444.634125,270.141785 446.274780,264.366852 448.316498,258.735901 
	C449.366577,255.839890 448.660950,254.217026 446.147980,252.554382 
	C441.289337,249.339767 436.647491,245.795059 431.947052,242.344559 
	C429.223846,240.345474 427.313141,237.866074 428.533447,234.262848 
	C429.746429,230.681259 432.745850,229.836456 436.131256,229.820404 
	C441.964081,229.792740 447.799133,229.677109 453.628876,229.801987 
	C456.601746,229.865662 458.169281,228.746643 459.014343,225.846420 
	C460.643585,220.255173 462.619781,214.765869 464.390442,209.214630 
	C465.386658,206.091324 467.105072,203.819412 470.652039,203.739258 
	C474.457916,203.653229 476.253082,206.046860 477.323486,209.348724 
	C479.119873,214.890030 481.186310,220.350861 482.780914,225.947617 
	C483.631775,228.933975 485.232880,229.903488 488.150085,229.837021 
	C493.646729,229.711807 499.148865,229.851807 504.647858,229.795639 
	C507.607086,229.765427 510.263245,230.407196 512.705933,232.782013 
	C513.000000,235.041672 513.000000,237.083328 513.000000,239.562500 
M461.006104,242.483963 
	C459.397003,242.597137 457.746918,242.565948 455.877777,244.146484 
	C463.615356,247.664291 464.869568,253.423447 461.254639,261.156769 
	C467.877655,255.517807 473.941559,255.255188 480.378693,261.317169 
	C476.861847,253.163010 478.567078,247.229416 486.645233,242.946106 
	C477.188904,244.193787 472.152252,240.282089 471.385437,230.350189 
	C468.386627,235.781784 468.855988,242.309677 461.006104,242.483963 
z"/>
<path fill="#000000" opacity="1.000000" stroke="none" 
	d="
M327.562500,1.000000 
	C332.406860,6.340829 333.144379,13.159264 335.275421,19.392344 
	C337.777771,26.711508 337.586273,26.782520 345.178833,26.810852 
	C349.672424,26.827618 354.166107,26.827703 358.659729,26.827435 
	C362.168610,26.827225 365.486847,27.439856 366.874329,31.162352 
	C368.414490,35.294357 365.653168,37.714211 362.760925,39.862694 
	C358.220581,43.235474 353.682556,46.618980 349.014587,49.809196 
	C346.710327,51.383999 346.158722,52.995537 347.118042,55.675327 
	C349.133728,61.306015 350.766510,67.072510 352.649414,72.752457 
	C353.755646,76.089531 353.545837,79.062973 350.477325,81.194748 
	C347.563995,83.218712 344.827515,82.275795 342.211243,80.339806 
	C337.931396,77.172859 333.463226,74.242630 329.343536,70.882713 
	C326.151825,68.279617 323.519714,67.857002 320.159760,70.665375 
	C316.083801,74.072205 311.614807,77.008362 307.320435,80.154419 
	C304.596436,82.150024 301.709045,83.339417 298.604462,81.132072 
	C295.320770,78.797401 295.490845,75.665771 296.723053,72.206551 
	C298.507385,67.197296 299.867706,62.032429 301.759766,57.067661 
	C303.100006,53.550831 302.568237,51.203869 299.310425,49.073761 
	C294.720978,46.072964 290.384766,42.682499 285.967560,39.421642 
	C283.313446,37.462349 281.044769,35.206223 282.265961,31.495556 
	C283.526215,27.666227 286.716644,26.884089 290.252289,26.863260 
	C295.577911,26.831888 300.919739,26.573471 306.224396,26.901354 
	C310.371674,27.157703 312.031403,25.345543 313.247559,21.634157 
	C315.461273,14.878523 316.698212,7.732862 320.808441,1.299158 
	C323.041656,1.000000 325.083344,1.000000 327.562500,1.000000 
M326.600769,33.003448 
	C325.850677,31.861094 326.262939,30.025330 323.894745,29.156694 
	C323.142761,38.425491 316.892120,40.466587 308.481934,40.033665 
	C317.559967,44.358353 318.576996,50.735004 314.650269,59.081760 
	C321.067352,52.351807 327.376129,52.180096 334.688446,58.418488 
	C329.213043,49.313374 333.406525,44.063679 341.399200,39.975658 
	C335.283234,38.933762 328.771515,41.366657 326.600769,33.003448 
z"/>
<path fill="#000000" opacity="1.000000" stroke="none" 
	d="
M192.562500,1.000000 
	C197.323807,7.127503 198.403427,14.519059 200.732834,21.396317 
	C202.049911,25.284779 203.701752,27.208225 208.080917,26.885773 
	C213.212784,26.507895 218.395370,26.839468 223.555817,26.822821 
	C227.315292,26.810694 230.635376,27.661161 231.886230,31.704504 
	C233.039841,35.433434 230.606003,37.603851 227.957794,39.543468 
	C223.259521,42.984604 218.602264,46.485336 213.824448,49.812656 
	C211.549057,51.397255 210.998352,53.064205 211.957718,55.738415 
	C213.978088,61.370216 215.585892,67.148804 217.536804,72.807243 
	C218.628906,75.974747 218.486481,78.774925 215.761978,80.918770 
	C212.781143,83.264305 209.833313,82.356499 207.050003,80.345467 
	C202.328476,76.934036 197.510422,73.644966 192.932571,70.050255 
	C190.344589,68.018074 188.266968,68.251747 185.818375,70.127563 
	C181.724426,73.263863 177.520691,76.258842 173.323227,79.257362 
	C170.324234,81.399727 167.262878,83.889580 163.421539,81.078346 
	C159.677200,78.338104 160.701172,74.710892 161.892761,71.114975 
	C163.514420,66.221275 164.887100,61.231247 166.779709,56.445938 
	C168.069153,53.185741 167.326370,51.214478 164.520218,49.339489 
	C160.094925,46.382641 155.845215,43.161613 151.542587,40.023056 
	C148.633713,37.901192 145.793335,35.572128 147.134979,31.419365 
	C148.451004,27.345985 151.972076,26.827190 155.653870,26.843000 
	C159.482605,26.859442 163.312454,26.899715 167.140106,26.832047 
	C177.396957,26.650707 175.726852,28.191986 179.318954,17.728569 
	C181.194687,12.264709 181.895554,6.330327 185.799774,1.286952 
	C188.041672,1.000000 190.083328,1.000000 192.562500,1.000000 
M186.078079,36.644215 
	C183.025925,41.085659 177.993759,38.413700 173.164185,40.208515 
	C181.219757,44.216991 183.968582,49.926811 179.161942,58.285912 
	C189.923309,53.558681 189.923309,53.558681 199.023834,58.197868 
	C199.081497,54.490791 196.157898,51.313419 197.560028,47.544605 
	C198.882935,43.988743 202.913406,43.003174 205.527802,39.185986 
	C196.185791,41.398064 191.555634,37.270088 189.647064,28.008661 
	C188.161407,31.688160 187.299820,33.822002 186.078079,36.644215 
z"/>
<path fill="#000000" opacity="1.000000" stroke="none" 
	d="
M299.468658,353.000000 
	C299.600433,349.631805 302.292755,348.980011 304.947876,348.937195 
	C314.519623,348.782837 324.095215,348.831635 333.669128,348.861664 
	C336.295135,348.869904 338.521057,349.790649 339.901855,352.647949 
	C326.645782,353.000000 313.291534,353.000000 299.468658,353.000000 
z"/>
<path fill="#000000" opacity="1.000000" stroke="none" 
	d="
M351.147827,119.715179 
	C382.752747,133.791901 402.062073,163.474182 401.089630,197.094193 
	C400.516449,216.910095 393.286377,234.330811 380.330933,249.459000 
	C368.901245,262.805603 362.812225,278.368622 362.280121,296.020752 
	C362.093170,302.222656 359.975494,304.310425 353.657196,304.321228 
	C330.824249,304.360260 307.991150,304.361237 285.158203,304.325623 
	C278.936737,304.315918 277.114014,302.309448 276.659790,295.893768 
	C276.154144,288.751923 275.532288,281.602112 272.905823,274.837219 
	C272.216492,273.061737 272.349579,270.540222 270.008423,269.987885 
	C268.225403,269.567200 266.938263,270.814301 266.106079,272.464386 
	C264.908386,274.839264 263.274292,277.043213 265.557770,279.769073 
	C268.016602,282.704254 270.287354,285.799927 272.581390,288.869507 
	C276.401276,293.980743 276.321533,296.095673 272.134186,300.654877 
	C268.978638,304.090668 265.732758,307.443726 262.588501,310.889618 
	C259.572968,314.194458 256.326019,314.982452 252.428009,312.344666 
	C248.979813,310.011322 245.479950,307.735901 241.873566,305.659576 
	C237.745590,303.282990 232.348877,306.398895 232.396713,311.217133 
	C232.437866,315.364014 232.949127,319.510193 233.337234,323.648712 
	C233.764923,328.209045 231.763336,330.920624 227.352036,332.022217 
	C222.343384,333.272949 217.366653,334.651825 212.356003,335.894165 
	C208.376373,336.880859 205.519226,335.405975 203.845947,331.674561 
	C202.210602,328.027710 200.531784,324.397675 199.011581,320.702850 
	C198.000473,318.245300 196.408188,317.095795 193.685196,317.094452 
	C190.882599,317.093109 188.472702,317.219543 187.046631,320.256744 
	C185.350082,323.869965 183.337921,327.337830 181.400650,330.834412 
	C179.355392,334.525909 176.455307,335.997223 172.229034,334.478729 
	C167.374619,332.734558 162.450821,331.182373 157.549866,329.569000 
	C153.421463,328.209900 151.752182,325.497864 152.504745,321.137177 
	C153.182953,317.207336 153.311829,313.167877 154.194153,309.293121 
	C154.837448,306.468048 153.845123,304.961823 151.722107,303.461121 
	C149.536484,301.916107 147.599106,300.936249 144.931976,302.589874 
	C141.396957,304.781647 137.627548,306.591339 134.018936,308.669525 
	C130.427048,310.738098 127.339180,310.271698 124.709381,307.082947 
	C121.316864,302.969330 117.939072,298.843018 114.600471,294.685638 
	C111.752075,291.138641 112.024216,287.693329 115.042160,284.350311 
	C117.385681,281.754364 119.526550,278.959198 122.016258,276.516266 
	C124.339111,274.237061 124.853104,272.019073 123.655548,268.925568 
	C122.462891,265.844635 120.375183,265.165405 117.451767,265.095245 
	C113.961784,265.011536 110.482826,264.541718 106.994003,264.318970 
	C101.648804,263.977661 99.461121,262.040009 98.861450,256.788025 
	C98.295296,251.829575 97.984444,246.838760 97.304466,241.897522 
	C96.721756,237.663132 98.543724,235.150375 102.375702,233.943527 
	C106.344910,232.693466 110.372696,231.627991 114.381882,230.506836 
	C116.818962,229.825317 118.468498,228.637817 118.741722,225.781906 
	C119.005424,223.025436 119.315575,220.690262 116.359604,218.911499 
	C112.946510,216.857666 109.842972,214.285370 106.628876,211.905960 
	C103.198174,209.366226 102.270378,206.198730 104.248955,202.285080 
	C106.579185,197.675858 108.851479,193.037369 111.162766,188.418533 
	C113.191780,184.363800 116.250084,183.024780 120.653030,184.550781 
	C124.109154,185.748627 127.705246,186.537628 131.184006,187.676682 
	C133.985123,188.593826 136.079605,188.341003 138.225189,185.892014 
	C140.292419,183.532471 140.668823,181.428543 139.522903,178.672653 
	C137.989243,174.984283 136.543945,171.254395 135.206970,167.490372 
	C133.915710,163.855118 135.011520,160.925995 138.310562,158.918503 
	C142.722549,156.233780 147.152252,153.576813 151.611801,150.972092 
	C155.672760,148.600143 159.179428,149.211533 162.183304,152.955200 
	C164.371185,155.681915 166.897171,158.144333 169.000122,160.930130 
	C170.852524,163.384033 172.914154,164.172272 175.916946,163.423370 
	C178.847717,162.692398 180.460938,161.321930 180.895599,158.130569 
	C181.454727,154.025391 182.540543,149.987839 183.480148,145.939880 
	C184.253586,142.607712 186.364410,140.704941 189.850876,140.728409 
	C195.348862,140.765411 200.848892,140.856689 206.342514,141.068710 
	C210.567749,141.231781 213.153214,143.411392 213.740494,147.728104 
	C214.277924,151.678467 214.910583,155.617432 215.363327,159.577179 
	C215.664413,162.210526 216.952286,163.748291 219.476532,164.596695 
	C222.023010,165.452576 224.193726,165.754150 226.247879,163.453476 
	C228.796829,160.598587 231.611084,157.982376 234.259949,155.214447 
	C237.234848,152.105804 240.459152,150.742249 244.428452,153.451721 
	C248.100632,155.958405 249.420624,152.921280 250.969193,150.603149 
	C262.228577,133.748428 277.380890,122.098671 296.971893,116.595100 
	C315.207001,111.472450 333.190216,112.434341 351.147827,119.715179 
M240.784500,216.444031 
	C236.178741,200.346191 237.372711,184.299179 242.213043,167.539902 
	C236.862091,169.620056 234.547058,173.440231 231.579361,176.391373 
	C228.918015,179.037903 226.086273,180.042236 222.562897,178.917084 
	C218.125748,177.500168 213.732147,175.947113 209.297546,174.521912 
	C205.665375,173.354599 204.010040,170.852142 203.674484,167.125046 
	C203.362045,163.654846 202.761749,160.209442 202.251694,156.758514 
	C201.911911,154.459579 200.725952,153.288116 198.209229,153.354431 
	C195.836960,153.416916 194.539429,154.219986 194.121841,156.691956 
	C193.513351,160.293915 192.669418,163.859177 191.835770,167.418961 
	C191.298248,169.714203 190.631012,172.164413 188.116989,172.978714 
	C181.801178,175.024445 175.435867,177.832764 168.803436,177.430542 
	C163.367798,177.100876 161.688171,170.907608 158.045639,167.633026 
	C157.799866,167.412079 157.596664,167.140900 157.389206,166.880692 
	C155.929901,165.050415 154.529556,163.841309 151.969803,165.535202 
	C149.535278,167.146164 149.098206,168.818726 150.242905,171.392380 
	C151.593826,174.429688 152.676575,177.586578 153.865768,180.695389 
	C155.027115,183.731400 154.922424,186.676193 152.592911,189.088425 
	C137.568268,204.646606 143.319870,204.493820 124.541252,199.081360 
	C124.381233,199.035248 124.215027,199.001694 124.064011,198.934586 
	C121.785797,197.922226 120.379524,198.706787 119.237030,200.870453 
	C117.993492,203.225464 118.320534,204.902954 120.507851,206.405151 
	C123.389053,208.383896 126.359123,210.284332 128.991898,212.563873 
	C136.294250,218.886475 130.338394,226.202957 130.214615,233.063278 
	C130.141937,237.092224 127.988060,239.908356 123.872322,241.014008 
	C120.339935,241.962952 116.863548,243.119400 113.335716,244.086777 
	C111.513908,244.586349 110.192291,245.431839 110.572525,247.516464 
	C110.926216,249.455536 111.181198,251.566757 113.901566,251.787567 
	C116.554436,252.002930 119.246941,252.829254 121.833199,252.553619 
	C128.777802,251.813538 131.978806,255.356262 134.292297,261.391815 
	C140.610580,277.875275 141.380859,273.185333 129.891678,286.874115 
	C128.441116,288.602356 126.892372,289.900818 129.012604,292.324158 
	C130.883804,294.462860 132.597214,294.926544 135.041489,293.447144 
	C138.030746,291.637878 141.150253,290.045197 144.184158,288.307770 
	C146.893448,286.756195 149.565689,286.662903 152.175919,288.436310 
	C156.444580,291.336456 160.726837,294.220917 164.906952,297.245300 
	C167.428909,299.069977 168.177399,301.667450 167.684006,304.757751 
	C167.081879,308.529297 166.653336,312.329773 166.206467,316.124420 
	C165.942947,318.362061 167.271042,319.331421 169.216415,320.046295 
	C171.422623,320.856964 172.735580,320.027527 173.740173,318.218353 
	C175.033096,315.889832 176.560150,313.644958 177.507355,311.179993 
	C179.776337,305.275208 183.945969,303.880371 190.049408,303.746063 
	C200.781113,303.509796 208.908966,305.933105 211.578217,317.725525 
	C212.120972,320.123291 213.459610,322.470947 216.915771,321.459625 
	C220.228699,320.490265 220.368607,317.912964 219.743973,315.468353 
	C216.906204,304.362457 221.361328,297.356750 231.644104,293.404083 
	C232.102585,293.227844 232.525497,292.926056 232.921494,292.625458 
	C237.397232,289.227844 241.679245,289.337646 246.035858,292.998871 
	C248.060730,294.700531 250.499939,295.899445 252.670441,297.440216 
	C254.835724,298.977264 256.545319,298.651245 258.337555,296.742371 
	C260.096344,294.869171 259.758270,293.245575 258.381287,291.433502 
	C256.064301,288.384460 253.777283,285.311798 251.526642,282.213501 
	C250.096725,280.245056 249.122498,278.063995 250.425934,275.703827 
	C254.201950,268.866364 255.424576,260.397003 263.758759,255.848068 
	C253.748779,244.110550 244.858109,232.097916 240.784500,216.444031 
M270.177460,243.358368 
	C280.080750,255.716507 286.259125,269.708313 288.361267,285.415741 
	C288.957031,289.867462 290.540802,291.938049 295.630066,291.822906 
	C311.606323,291.461578 327.597839,291.560760 343.579193,291.783997 
	C347.816895,291.843170 349.861664,290.778351 350.431427,286.272339 
	C352.734039,268.061920 360.753387,252.528992 372.548187,238.554459 
	C386.397156,222.146164 391.115845,202.740891 386.887482,181.959625 
	C378.428955,140.388245 338.759369,117.278687 298.036896,129.411072 
	C268.448303,138.226364 247.508484,170.336288 250.845505,200.797104 
	C252.621445,217.008194 258.958557,230.817627 270.177460,243.358368 
z"/>
<path fill="#000000" opacity="1.000000" stroke="none" 
	d="
M62.415215,130.801941 
	C62.890026,127.863518 60.739067,127.085426 59.201653,125.942108 
	C54.523540,122.463158 49.780254,119.071976 45.088936,115.610588 
	C42.634148,113.799377 41.065048,111.474297 42.082520,108.313217 
	C43.130440,105.057541 45.607052,103.658257 48.990562,103.676163 
	C54.821762,103.707024 60.660744,103.501915 66.481781,103.745941 
	C69.890228,103.888832 71.682587,102.690224 72.631157,99.417854 
	C74.159264,94.146164 76.041061,88.977997 77.703186,83.743782 
	C78.770584,80.382431 80.244293,77.363052 84.319687,77.330620 
	C88.614876,77.296425 90.201935,80.398590 91.313568,83.956863 
	C93.000755,89.357460 94.855705,94.705887 96.522133,100.112617 
	C97.324310,102.715271 98.778786,103.810654 101.603973,103.727234 
	C107.596458,103.550301 113.598404,103.718330 119.596138,103.685318 
	C122.891289,103.667183 125.500343,104.695724 126.715660,108.007881 
	C127.977951,111.448067 126.255608,113.776062 123.673965,115.690941 
	C119.259857,118.965034 114.947327,122.404724 110.331291,125.368637 
	C106.790115,127.642380 105.814064,130.004486 107.455276,134.047363 
	C109.514740,139.120544 110.863548,144.479034 112.606186,149.685226 
	C113.657829,152.827042 113.507126,155.630981 110.668961,157.747406 
	C107.803131,159.884430 105.063667,159.131683 102.400764,157.200272 
	C97.681717,153.777527 92.816010,150.544250 88.240799,146.940796 
	C85.577698,144.843323 83.546280,144.671204 80.809074,146.849792 
	C76.253426,150.475739 71.391357,153.716339 66.664131,157.127243 
	C64.040131,159.020569 61.299820,160.015808 58.437962,157.735352 
	C55.583912,155.461090 55.264355,152.562439 56.427597,149.194473 
	C58.492207,143.216751 60.363346,137.172195 62.415215,130.801941 
M70.504181,118.491669 
	C78.410408,122.010750 77.346352,128.202667 74.907448,135.399231 
	C81.500237,127.864410 87.804077,129.729767 94.429024,135.081863 
	C90.015846,126.802246 92.255875,121.111000 100.061035,116.636261 
	C90.727417,118.141083 86.223816,113.748116 84.398766,105.182381 
	C82.767166,113.434341 78.686836,117.610100 70.389816,116.464729 
	C69.176811,116.297264 69.346619,117.356613 70.504181,118.491669 
z"/>
<path fill="#000000" opacity="1.000000" stroke="none" 
	d="
M452.577271,127.604324 
	C450.614380,129.550812 451.829651,131.302338 452.340424,132.964233 
	C454.099945,138.689240 455.941254,144.389450 457.793671,150.085388 
	C458.771942,153.093475 458.319214,155.715576 455.746613,157.692017 
	C453.126709,159.704758 450.453247,159.308655 447.907776,157.477448 
	C442.906281,153.879471 437.842743,150.358932 432.978271,146.582962 
	C430.615143,144.748627 428.804413,144.635101 426.389008,146.511871 
	C421.658600,150.187424 416.690002,153.555328 411.846222,157.086548 
	C409.222382,158.999374 406.459930,159.987991 403.580414,157.871857 
	C400.619385,155.695831 400.328400,152.765182 401.517944,149.392563 
	C403.343903,144.215790 404.734680,138.876907 406.733276,133.772476 
	C408.240021,129.924301 407.225586,127.646523 403.869751,125.492294 
	C399.393707,122.618996 395.193085,119.311050 390.923676,116.123459 
	C388.287323,114.155113 386.049713,111.877930 387.279510,108.155251 
	C388.556976,104.288177 391.640381,103.587181 395.257935,103.654594 
	C400.752686,103.756981 406.257477,103.515480 411.745087,103.738251 
	C415.178070,103.877609 416.896393,102.531761 417.831360,99.288177 
	C419.397003,93.856583 421.298645,88.522270 423.034180,83.139053 
	C424.083191,79.885208 425.840393,77.344330 429.614136,77.336090 
	C433.153351,77.328362 434.948700,79.691673 435.968140,82.749840 
	C437.862701,88.433121 439.782318,94.110420 441.527130,99.840256 
	C442.387970,102.667244 443.965881,103.817986 446.971008,103.727264 
	C452.795258,103.551437 458.629791,103.751389 464.458527,103.676689 
	C467.976196,103.631622 470.766815,104.718239 471.911743,108.251907 
	C473.016785,111.662476 471.167206,113.944450 468.550293,115.844948 
	C463.295654,119.661079 458.076080,123.525490 452.577271,127.604324 
M434.173553,114.611084 
	C431.400879,112.364998 431.864990,108.310402 429.444946,105.650215 
	C425.555847,114.886513 425.555847,114.886513 413.650848,117.045006 
	C420.944580,120.948601 424.280518,126.136948 419.804840,134.167084 
	C430.711395,130.536102 430.711395,130.536102 439.962646,135.152512 
	C435.488159,127.078377 437.064911,121.037910 445.731171,117.068237 
	C441.318665,115.676170 437.763489,117.160843 434.173553,114.611084 
z"/>
<path fill="#000000" opacity="1.000000" stroke="none" 
	d="
M331.000061,310.722961 
	C338.654999,310.730896 345.810944,310.669128 352.964539,310.772095 
	C357.986694,310.844299 360.926666,313.311462 360.927338,317.155396 
	C360.928009,320.987335 358.026764,323.334045 352.892609,323.342285 
	C330.595825,323.378082 308.298889,323.371552 286.002136,323.320984 
	C280.986023,323.309601 278.005219,320.851959 278.017975,317.052368 
	C278.030609,313.292511 281.060547,310.780029 286.072815,310.755432 
	C300.881592,310.682770 315.690918,310.725830 331.000061,310.722961 
z"/>
<path fill="#000000" opacity="1.000000" stroke="none" 
	d="
M359.156097,340.399048 
	C357.137360,342.306519 354.988495,342.371063 352.791870,342.370026 
	C330.650726,342.359436 308.509613,342.365112 286.368469,342.371338 
	C283.840729,342.372040 281.339783,342.351654 279.525055,340.143433 
	C276.876343,336.920441 277.920563,332.198059 281.829254,330.610138 
	C283.318237,330.005219 285.063812,329.809845 286.693268,329.806396 
	C308.667816,329.759735 330.642700,329.728271 352.617004,329.813202 
	C359.760590,329.840820 362.262848,333.787170 359.156097,340.399048 
z"/>
<path fill="#000000" opacity="1.000000" stroke="none" 
	d="
M237.074722,234.430878 
	C238.279160,260.546234 220.556580,280.551392 196.080078,281.223053 
	C173.740677,281.836029 154.899887,264.717377 152.839340,241.934723 
	C150.896881,220.457397 166.969299,200.515198 189.050644,197.004776 
	C210.455521,193.601868 231.666260,208.450958 236.261520,230.062012 
	C236.538208,231.363266 236.764023,232.675339 237.074722,234.430878 
M224.610275,236.839111 
	C224.272598,235.041061 224.009140,233.225311 223.585495,231.447739 
	C220.149780,217.031525 204.273849,206.808105 189.968338,209.682785 
	C171.449371,213.404175 164.033371,229.665710 165.576981,241.922470 
	C167.555878,257.635712 181.703400,269.642731 196.147842,268.609314 
	C212.588852,267.433075 224.491608,254.520859 224.610275,236.839111 
z"/>
<path fill="#000000" opacity="1.000000" stroke="none" 
	d="
M363.432892,228.721313 
	C357.862122,231.502670 352.296539,232.206421 346.581360,231.404739 
	C342.252350,230.797485 339.388184,231.819702 337.748596,236.362167 
	C336.645172,239.419174 334.577423,242.227524 332.535187,244.828369 
	C325.262451,254.090256 314.130829,254.164307 306.533844,245.138718 
	C304.268250,242.447083 302.341400,239.505875 301.052856,236.237061 
	C299.557800,232.444550 297.056183,230.871353 292.926147,231.324707 
	C289.968536,231.649384 286.930115,231.518463 283.949066,231.300034 
	C271.957153,230.421295 265.618774,220.929825 269.299805,209.479767 
	C270.481384,205.804291 272.023071,202.203339 274.531708,199.318222 
	C277.452118,195.959473 276.850616,193.145554 274.438293,190.002380 
	C271.987823,186.809525 270.168182,183.249832 269.056702,179.361420 
	C266.183533,169.310074 270.728455,161.360229 280.864868,158.833496 
	C285.270111,157.735367 289.768066,157.412384 294.244629,158.291885 
	C297.200165,158.872574 298.936279,157.876404 300.143280,155.139877 
	C301.891174,151.177032 303.957367,147.371017 306.939331,144.136948 
	C314.940491,135.459366 324.526276,135.595490 332.289551,144.548920 
	C334.707214,147.337204 336.751129,150.414200 338.072357,153.842209 
	C339.493591,157.529816 341.604034,158.994781 345.719971,158.163101 
	C350.687683,157.159271 355.701904,157.916641 360.459717,159.648209 
	C368.316315,162.507553 371.788757,168.743668 370.404541,176.952347 
	C369.579956,181.842316 367.465271,186.179550 364.526337,190.042740 
	C362.013611,193.345734 361.960815,196.216278 364.487793,199.491287 
	C366.834198,202.532272 368.552124,205.990555 369.717346,209.668671 
	C372.253998,217.675751 370.436310,223.345047 363.432892,228.721313 
M332.054535,207.516937 
	C334.095825,206.122574 336.220978,204.987045 336.678436,202.048218 
	C338.917999,187.661987 337.162109,184.104874 324.249603,177.689011 
	C323.653687,177.392899 323.026367,177.153488 322.452454,176.820740 
	C320.219360,175.525864 318.197754,176.014313 315.842621,176.900970 
	C305.406006,180.830215 299.677979,187.434769 302.197266,199.210892 
	C302.368530,200.011566 302.307587,200.871002 302.287964,201.701553 
	C302.244965,203.523376 303.113922,204.769989 304.471222,205.938080 
	C314.793121,214.821136 319.302246,215.228195 331.017426,208.193329 
	C331.159912,208.107773 331.293854,208.008011 332.054535,207.516937 
M312.795685,238.711761 
	C314.771027,241.043991 316.884857,243.142914 320.314240,242.711807 
	C323.847046,242.267715 330.830963,233.717773 330.498932,230.198181 
	C330.443542,229.611313 330.120758,228.745178 329.679749,228.547440 
	C326.219025,226.995834 322.721375,224.502121 319.030579,224.867798 
	C315.438416,225.223724 310.747009,226.092041 308.970734,229.342285 
	C307.392212,232.230621 310.509674,235.410492 312.795685,238.711761 
M352.121674,222.732193 
	C356.257507,222.172485 360.890411,221.961578 361.599091,216.598785 
	C362.277557,211.464325 359.347382,207.419449 356.289185,203.635651 
	C355.643433,202.836670 354.657257,202.788986 353.559875,203.137985 
	C348.066650,204.885040 342.120789,214.974579 343.421173,220.384521 
	C343.803711,221.976044 344.878845,222.520798 346.293243,222.613968 
	C347.945557,222.722824 349.605560,222.714218 352.121674,222.732193 
M329.840668,157.410095 
	C328.592377,155.269470 327.547852,152.973541 326.057220,151.017593 
	C321.724335,145.332153 317.629242,145.220901 313.089935,150.675339 
	C310.771851,153.460770 307.682770,156.822632 309.015167,160.272522 
	C310.244934,163.456589 314.820496,163.714752 318.110565,164.538452 
	C322.682648,165.683090 329.524689,161.694550 329.840668,157.410095 
M291.628265,208.006409 
	C283.235107,200.841553 282.547546,200.921127 278.605896,210.038498 
	C277.051453,213.634048 275.818237,217.371902 279.454834,220.566376 
	C281.810913,222.636017 291.031097,223.621429 293.396667,222.206894 
	C294.524780,221.532318 295.059143,220.482224 294.976257,219.288345 
	C294.715363,215.529633 295.267975,211.531540 291.628265,208.006409 
M349.149536,183.331894 
	C351.289368,184.657196 353.029694,187.494370 356.078369,185.788269 
	C359.890717,183.654800 362.887024,174.368652 361.054138,171.026764 
	C359.212433,167.668839 349.301819,165.550293 345.406158,167.666016 
	C344.096893,168.377090 343.295624,169.516876 343.550354,170.919235 
	C344.338226,175.256943 344.104889,180.075974 349.149536,183.331894 
M285.817535,167.151703 
	C281.792297,167.452591 278.180328,168.443802 277.307434,173.123260 
	C276.635162,176.727188 280.414886,184.833405 283.192413,186.191986 
	C284.160919,186.665695 285.130646,186.772873 286.012177,186.168335 
	C288.737671,184.299179 291.743256,182.543365 293.343292,179.628036 
	C295.115082,176.399872 295.911316,172.490585 294.323303,169.126511 
	C292.932861,166.180969 289.444672,167.085602 285.817535,167.151703 
z"/>
</svg>